<svg xmlns="http://www.w3.org/2000/svg" width="216" height="48" viewBox="0 0 216 48" fill="none">
    <path d="M89.4552 47.9565V42.9429H89.2775L86.9234 45.4715L84.6581 42.9429H84.4805V47.9565H85.4576V45.1663L86.9678 46.6922L88.478 45.1663V47.9565H89.4552Z" fill="#1D1D1B"/>
    <path d="M96.56 45.7329V44.9918H94.6501V43.7275H96.7377V42.9863H93.7617V47.9564H96.8265V47.2152H94.6501V45.7329H96.56Z" fill="#1D1D1B"/>
    <path d="M104.912 46.4305C104.912 45.6893 104.379 44.9046 103.135 44.9046H101.847V43.7275H104.423V42.9863H100.914V48H103.135C104.334 47.9564 104.912 47.1716 104.912 46.4305ZM101.847 47.2152V45.6457H103.135C103.668 45.6457 103.979 46.0381 103.979 46.4305C103.979 46.8229 103.668 47.2152 103.135 47.2152H101.847Z" fill="#1D1D1B"/>
    <path d="M111.71 45.7329V44.9918H109.8V43.7275H111.843V42.9863H108.867V47.9564H111.932V47.2152H109.8V45.7329H111.71Z" fill="#1D1D1B"/>
    <path d="M119.525 47.9566H120.458L118.06 42.8994H117.793L115.395 47.9566H116.327L117.926 44.3817L119.525 47.9566Z" fill="#1D1D1B"/>
    <path d="M127.564 46.2997C127.564 45.5149 127.031 44.643 125.787 44.643H124.499V42.9863H123.566V48H125.787C127.031 47.9564 127.564 47.0844 127.564 46.2997ZM125.476 47.2152C125.343 47.2152 125.254 47.2152 125.121 47.2152H124.544V45.3842H125.832C126.365 45.3842 126.676 45.8637 126.676 46.2997C126.676 46.7357 126.365 47.2152 125.832 47.2152C125.698 47.2152 125.565 47.2152 125.476 47.2152Z" fill="#1D1D1B"/>
    <path d="M135.16 47.9564V42.9863H134.182V44.9482H131.962V42.9863H130.984V47.9564H131.962V45.7765H134.182V47.9564H135.16Z" fill="#1D1D1B"/>
    <path d="M142.091 47.2591L142.402 47.9566H143.335L140.936 42.8994H140.625L138.227 47.9566H139.159L139.47 47.2591H142.091ZM140.803 44.2509L141.824 46.5615H139.781L140.803 44.2509Z" fill="#1D1D1B"/>
    <path d="M150.884 47.9565V42.9429H148.663C147.819 42.9429 147.197 43.3788 146.975 44.0764C146.753 44.8175 147.019 45.6023 147.597 46.0382L147.774 46.169L146.664 47.9565H147.819L148.796 46.3434H149.951V47.9565H150.884ZM148.663 45.5587C148.13 45.5587 147.819 45.0791 147.819 44.6431C147.819 44.2072 148.085 43.7276 148.663 43.7276C148.885 43.7276 149.107 43.7276 149.329 43.7276H149.907V45.5587H148.663Z" fill="#1D1D1B"/>
    <path d="M167.141 45.4713C167.141 44.1634 166.342 43.4659 164.743 43.4223H164.521V42.9863H163.632V43.4223H163.41C161.811 43.4659 161.012 44.1634 161.012 45.4713C161.012 46.8228 161.811 47.4768 163.41 47.5204H163.632V47.9564H164.476V47.5204H164.698C166.386 47.4768 167.141 46.7792 167.141 45.4713ZM163.677 46.7357H163.41C162.167 46.6485 161.989 45.9073 161.989 45.4713C161.989 44.9046 162.255 44.2506 163.41 44.207H163.677V46.7357ZM164.743 46.7357H164.476V44.207H164.743C165.942 44.2506 166.164 44.9046 166.164 45.4713C166.208 45.9073 165.986 46.6485 164.743 46.7357Z" fill="#1D1D1B"/>
    <path d="M174.247 47.2591L174.558 47.9566H175.491L173.092 42.8994H172.781L170.383 47.9566H171.316L171.626 47.2591H174.247ZM173.003 44.2509L174.025 46.5615H171.982L173.003 44.2509Z" fill="#1D1D1B"/>
    <path d="M183.177 46.4305C183.177 45.6893 182.644 44.9046 181.401 44.9046H180.112V43.7275H182.689V42.9863H179.18V48H181.401C182.6 47.9564 183.177 47.1716 183.177 46.4305ZM180.112 47.2152V45.6457H181.401C181.934 45.6457 182.244 46.0381 182.244 46.4305C182.244 46.8229 181.934 47.2152 181.401 47.2152H180.112Z" fill="#1D1D1B"/>
    <path d="M189.35 42.9863H187.129V48H188.062V46.6049H189.35C190.549 46.6049 191.126 45.6893 191.126 44.8174C191.082 43.9019 190.549 42.9863 189.35 42.9863ZM189.35 45.7765H188.062V43.7275H188.639C188.861 43.7275 189.128 43.7275 189.35 43.7275C189.838 43.7275 190.194 44.1634 190.194 44.7302C190.194 45.2534 189.883 45.7765 189.35 45.7765Z" fill="#1D1D1B"/>
    <path d="M198.855 47.9565V42.9429H198.678L195.524 45.9946V42.9865H194.547V47.9565H194.68L197.878 44.9483V47.9565H198.855Z" fill="#1D1D1B"/>
    <path d="M204.893 45.8639L205.071 45.8203L206.315 47.9565H207.47L205.915 45.4715L206.137 45.3407C207.07 44.7739 207.114 43.902 207.114 42.9429H206.137C206.137 43.5968 206.137 44.2072 205.693 44.6431C205.426 44.9047 205.027 45.0355 204.538 45.0355H204.183V42.9429H203.25V47.9565H204.183V45.8639H204.449C204.583 45.8639 204.716 45.8639 204.893 45.8639Z" fill="#1D1D1B"/>
    <path d="M214.669 47.2591L214.98 47.9566H215.913L213.514 42.8994H213.203L210.805 47.9566H211.737L212.048 47.2591H214.669ZM213.425 44.2509L214.447 46.5615H212.404L213.425 44.2509Z" fill="#1D1D1B"/>
    <path d="M35.1338 0.784668H27.272L18.433 22.1907H16.8784L7.86179 0.784668H0V1.08985L16.1678 37.1443H19.0993L35.1338 1.08985V0.784668Z" fill="#1D1D1B"/>
    <path d="M64.9375 21.4495V14.7792H51.8345V7.49857H66.0923V0.784668H43.9727V36.7084H66.5809V30.0381H51.8345V21.4495H64.9375Z" fill="#1D1D1B"/>
    <path d="M96.9603 36.7084H106.466V36.534L98.5593 23.9781L99.3144 23.455C103.756 20.4904 105.666 14.6484 104.023 9.24244C102.379 3.96723 97.8042 0.784668 91.7191 0.784668H75.7734V36.7084H83.6797V25.5912H90.3422L96.9603 36.7084ZM83.6797 7.49857H84.6568C85.4119 7.49857 86.2114 7.49857 86.9665 7.49857C88.5211 7.49857 90.1645 7.45497 91.7191 7.49857C95.2281 7.54216 96.7826 10.4195 96.7826 13.0789C96.7826 15.9127 95.006 18.7465 91.7191 18.7465H83.6797V7.49857Z" fill="#1D1D1B"/>
    <path d="M136.226 21.4495V14.7792H123.124V7.49857H137.381V0.784668H115.262V36.7084H137.87V30.0381H123.124V21.4495H136.226Z" fill="#1D1D1B"/>
    <path d="M78.9733 43.9453H0V47.3459H78.9733V43.9453Z" fill="#7BC21F"/>
    <path d="M145.953 26.376C149.284 28.5995 154.481 30.0382 159.944 30.0382C164.12 30.0382 166.207 28.861 166.207 26.5504C166.207 24.109 163.631 23.3679 158.612 22.3215C150.661 20.6649 146.131 17.6131 146.131 11.0736C146.131 3.74932 151.994 0 161.41 0C165.763 0 169.761 0.828338 172.692 2.22343V10.2888C170.027 8.80654 165.852 7.32425 161.499 7.32425C157.768 7.32425 154.881 8.28338 154.881 10.7248C154.881 13.1662 157.635 13.9074 162.876 15.1281C170.516 16.8719 174.735 19.6621 174.735 26.2016C174.735 33.5695 169.139 37.406 159.722 37.406C154.481 37.406 149.151 36.1417 145.953 34.6158V26.376Z" fill="#1D1D1B"/>
<path d="M206.183 36.621L197.344 21.7981H191.97V36.621H183.664V0.697266H191.97V14.7354H197.478L206.317 0.697266H215.644L204.451 18.0052L216 36.621H206.183Z" fill="#1D1D1B"/>
</svg>
